<svg xmlns="http://www.w3.org/2000/svg" version="1.1" width="536" height="1088" viewBox="0 0 536 1088" class="diagram" text-anchor="middle" font-family="monospace" font-size="13px" stroke-linecap="round">
<rect width="536" height="1088" fill="white"/>
<style>
  :root {
    --aasvg-stroke: #000;
    --aasvg-fill: #000;
    --aasvg-bg: #fff;
    --aasvg-text: #000;
  }
  @media (prefers-color-scheme: dark) {
    :root {
      --aasvg-stroke: #fff;
      --aasvg-fill: #fff;
      --aasvg-bg: #1a1a1a;
      --aasvg-text: #fff;
    }
  }
</style>
<path d="M 8,16 L 8,80" fill="none" stroke="#333333"/>
<path d="M 8,608 L 8,672" fill="none" stroke="#333333"/>
<path d="M 80,80 L 80,96" fill="none" stroke="#333333"/>
<path d="M 80,128 L 80,368" fill="none" stroke="#333333"/>
<path d="M 128,336 L 128,400" fill="none" stroke="#333333"/>
<path d="M 128,464 L 128,544" fill="none" stroke="#333333"/>
<path d="M 144,16 L 144,80" fill="none" stroke="#333333"/>
<path d="M 144,608 L 144,672" fill="none" stroke="#333333"/>
<path d="M 176,400 L 176,416" fill="none" stroke="#333333"/>
<path d="M 176,448 L 176,464" fill="none" stroke="#333333"/>
<path d="M 176,544 L 176,560" fill="none" stroke="#333333"/>
<path d="M 176,592 L 176,640" fill="none" stroke="#333333"/>
<path d="M 192,16 L 192,80" fill="none" stroke="#333333"/>
<path d="M 200,736 L 200,800" fill="none" stroke="#333333"/>
<path d="M 200,896 L 200,960" fill="none" stroke="#333333"/>
<path d="M 200,1024 L 200,1072" fill="none" stroke="#333333"/>
<path d="M 208,144 L 208,192" fill="none" stroke="#333333"/>
<path d="M 208,608 L 208,640" fill="none" stroke="#333333"/>
<path d="M 232,336 L 232,400" fill="none" stroke="#333333"/>
<path d="M 232,464 L 232,544" fill="none" stroke="#333333"/>
<path d="M 264,80 L 264,96" fill="none" stroke="#333333"/>
<path d="M 264,128 L 264,144" fill="none" stroke="#333333"/>
<path d="M 264,224 L 264,272" fill="none" stroke="#333333"/>
<path d="M 272,672 L 272,688" fill="none" stroke="#333333"/>
<path d="M 272,720 L 272,736" fill="none" stroke="#333333"/>
<path d="M 272,800 L 272,816" fill="none" stroke="#333333"/>
<path d="M 272,880 L 272,896" fill="none" stroke="#333333"/>
<path d="M 272,960 L 272,976" fill="none" stroke="#333333"/>
<path d="M 272,1008 L 272,1024" fill="none" stroke="#333333"/>
<path d="M 296,336 L 296,400" fill="none" stroke="#333333"/>
<path d="M 328,16 L 328,80" fill="none" stroke="#333333"/>
<path d="M 328,144 L 328,192" fill="none" stroke="#333333"/>
<path d="M 352,736 L 352,800" fill="none" stroke="#333333"/>
<path d="M 352,896 L 352,912" fill="none" stroke="#333333"/>
<path d="M 352,944 L 352,960" fill="none" stroke="#333333"/>
<path d="M 352,1024 L 352,1072" fill="none" stroke="#333333"/>
<path d="M 360,272 L 360,288" fill="none" stroke="#333333"/>
<path d="M 360,320 L 360,336" fill="none" stroke="#333333"/>
<path d="M 360,608 L 360,640" fill="none" stroke="#333333"/>
<path d="M 376,16 L 376,80" fill="none" stroke="#333333"/>
<path d="M 432,336 L 432,400" fill="none" stroke="#333333"/>
<path d="M 448,80 L 448,96" fill="none" stroke="#333333"/>
<path d="M 448,128 L 448,216" fill="none" stroke="#333333"/>
<path d="M 472,224 L 472,240" fill="none" stroke="#333333"/>
<path d="M 528,16 L 528,80" fill="none" stroke="#333333"/>
<path d="M 8,16 L 144,16" fill="none" stroke="#333333"/>
<path d="M 192,16 L 328,16" fill="none" stroke="#333333"/>
<path d="M 376,16 L 528,16" fill="none" stroke="#333333"/>
<path d="M 8,80 L 144,80" fill="none" stroke="#333333"/>
<path d="M 192,80 L 328,80" fill="none" stroke="#333333"/>
<path d="M 376,80 L 528,80" fill="none" stroke="#333333"/>
<path d="M 208,144 L 256,144" fill="none" stroke="#333333"/>
<path d="M 272,144 L 328,144" fill="none" stroke="#333333"/>
<path d="M 208,192 L 328,192" fill="none" stroke="#333333"/>
<path d="M 264,224 L 424,224" fill="none" stroke="#333333"/>
<path d="M 440,224 L 472,224" fill="none" stroke="#333333"/>
<path d="M 264,272 L 472,272" fill="none" stroke="#333333"/>
<path d="M 128,336 L 232,336" fill="none" stroke="#333333"/>
<path d="M 296,336 L 352,336" fill="none" stroke="#333333"/>
<path d="M 368,336 L 432,336" fill="none" stroke="#333333"/>
<path d="M 80,368 L 120,368" fill="none" stroke="#333333"/>
<path d="M 128,400 L 232,400" fill="none" stroke="#333333"/>
<path d="M 296,400 L 432,400" fill="none" stroke="#333333"/>
<path d="M 128,464 L 168,464" fill="none" stroke="#333333"/>
<path d="M 184,464 L 232,464" fill="none" stroke="#333333"/>
<path d="M 128,544 L 232,544" fill="none" stroke="#333333"/>
<path d="M 8,608 L 144,608" fill="none" stroke="#333333"/>
<path d="M 208,608 L 360,608" fill="none" stroke="#333333"/>
<path d="M 152,640 L 176,640" fill="none" stroke="#333333"/>
<path d="M 8,672 L 144,672" fill="none" stroke="#333333"/>
<path d="M 200,672 L 352,672" fill="none" stroke="#333333"/>
<path d="M 200,736 L 264,736" fill="none" stroke="#333333"/>
<path d="M 280,736 L 352,736" fill="none" stroke="#333333"/>
<path d="M 200,800 L 352,800" fill="none" stroke="#333333"/>
<path d="M 200,896 L 264,896" fill="none" stroke="#333333"/>
<path d="M 280,896 L 352,896" fill="none" stroke="#333333"/>
<path d="M 200,960 L 352,960" fill="none" stroke="#333333"/>
<path d="M 200,1024 L 264,1024" fill="none" stroke="#333333"/>
<path d="M 280,1024 L 352,1024" fill="none" stroke="#333333"/>
<path d="M 200,1072 L 352,1072" fill="none" stroke="#333333"/>
<polygon points="272,144 260,138.4 260,149.6" fill="#333333" transform="rotate(90,264,144)"/>
<polygon points="368,336 356,330.4 356,341.6" fill="#333333" transform="rotate(90,360,336)"/>
<polygon points="128,368 116,362.4 116,373.6" fill="#333333" transform="rotate(0,120,368)"/>
<polygon points="184,464 172,458.4 172,469.6" fill="#333333" transform="rotate(90,176,464)"/>
<polygon points="160,640 148,634.4 148,645.6" fill="#333333" transform="rotate(180,152,640)"/>
<polygon points="280,736 268,730.4 268,741.6" fill="#333333" transform="rotate(90,272,736)"/>
<polygon points="280,896 268,890.4 268,901.6" fill="#333333" transform="rotate(90,272,896)"/>
<polygon points="280,1024 268,1018.4 268,1029.6" fill="#333333" transform="rotate(90,272,1024)"/>
<g fill="#000000">
<text x="48" y="36">Cloud</text>
<text x="240" y="36">Cloud</text>
<text x="428" y="36">Artifact</text>
<text x="64" y="52">Scheduler</text>
<text x="240" y="52">Build</text>
<text x="428" y="52">Registry</text>
<text x="76" y="68">cron semanal</text>
<text x="240" y="68">CI/CD</text>
<text x="448" y="68">Docker Images</text>
<text x="80" y="116">trigger</text>
<text x="260" y="116">push</text>
<text x="436" y="116">build+push</text>
<text x="260" y="164">GitHub</text>
<text x="252" y="180">Repo</text>
<text x="432" y="228">v</text>
<text x="336" y="244">Cloud Run</text>
<text x="344" y="260">Serving API</text>
<text x="488" y="260">|</text>
<text x="352" y="308">image |</text>
<text x="176" y="356">Pub/Sub</text>
<text x="348" y="356">Client</text>
<text x="172" y="372">retrain-</text>
<text x="348" y="372">/predict</text>
<text x="168" y="388">trigger</text>
<text x="344" y="388">/health</text>
<text x="168" y="436">event</text>
<text x="168" y="484">Cloud</text>
<text x="180" y="500">Function</text>
<text x="172" y="516">trigger-</text>
<text x="180" y="532">retraining</text>
<text x="172" y="580">launch job</text>
<text x="76" y="628">Secret Manager</text>
<text x="264" y="628">Vertex AI</text>
<text x="72" y="644">synthetic-api</text>
<text x="288" y="644">Custom Training</text>
<text x="36" y="660">-key</text>
<text x="176" y="660">key</text>
<text x="216" y="660">|</text>
<text x="284" y="660">--mode train</text>
<text x="368" y="660">|</text>
<text x="244" y="708">data + cache</text>
<text x="272" y="756">Cloud Storage</text>
<text x="276" y="772">gs://mlops-toxic</text>
<text x="268" y="788">-classifier-ml</text>
<text x="256" y="836">train.csv</text>
<text x="244" y="852">model/</text>
<text x="244" y="868">cache/</text>
<text x="264" y="916">Synthetic API</text>
<text x="276" y="932">nomic-embed-text</text>
<text x="360" y="932">|</text>
<text x="232" y="948">-v1.5</text>
<text x="268" y="996">embeddings</text>
<text x="276" y="1044">Cloud Monitoring</text>
<text x="264" y="1060">Alerts + Logs</text>
</g>
</svg>